<?xml version="1.0" encoding="utf-8"?>
<!-- Generator: Adobe Illustrator 26.5.0, SVG Export Plug-In . SVG Version: 6.00 Build 0)  -->
<svg version="1.1" id="Layer_1" xmlns="http://www.w3.org/2000/svg" xmlns:xlink="http://www.w3.org/1999/xlink" x="0px" y="0px"
	 viewBox="0 0 1920 1080" style="enable-background:new 0 0 1920 1080;" xml:space="preserve">
<style type="text/css">
	.st0{fill:#FFFFFF;}
</style>
<g>
	<g>
		<path class="st0" d="M378.4,311.2h127.1v15.3H395.9v74.3h104v16.1h-104v80.2h114.4l-4,15.8h-128V311.2z"/>
		<path class="st0" d="M544.2,472.3c2.1,11.3,6.9,19.3,14.4,24c7.5,4.7,18.3,7.1,32.2,7.1c14.1,0,24.1-2.6,29.9-7.9
			c5.8-5.3,8.8-11.8,8.8-19.7c0-3.4-0.4-6.5-1.1-9.4c-0.8-2.9-2.2-5.6-4.4-8c-2.2-2.4-5.3-4.5-9.3-6.2c-4-1.7-9.3-3.1-15.7-4.2
			l-17.8-2.8c-7.7-1.3-14.6-2.9-20.8-4.8c-6.1-1.9-11.3-4.4-15.5-7.5c-4.2-3.1-7.4-7-9.6-11.6c-2.2-4.6-3.2-10.3-3.2-17.1
			c0-6.4,1.4-12.2,4.2-17.3c2.8-5.2,6.7-9.5,11.6-13s10.7-6.2,17.4-8c6.7-1.9,13.9-2.8,21.6-2.8c10,0,18.3,1,25,3
			c6.7,2,12.1,4.7,16.4,8c4.2,3.4,7.5,7.3,9.9,11.9c2.4,4.5,4.2,9.3,5.5,14.4l-15,3.1c-1.5-4.3-3.3-8.1-5.2-11.4
			c-2-3.3-4.5-6-7.5-8.2c-3-2.2-6.8-3.8-11.3-4.9c-4.5-1.1-10.2-1.7-17-1.7c-7.5,0-13.8,0.7-18.9,2.1c-5.1,1.4-9.2,3.3-12.3,5.8
			c-3.1,2.5-5.3,5.3-6.6,8.5c-1.3,3.2-2,6.5-2,9.9s0.4,6.5,1.1,9.2c0.8,2.7,2.3,5.1,4.5,7.2c2.3,2.1,5.4,3.9,9.5,5.4
			c4.1,1.5,9.4,2.8,16,4l22.4,3.7c15.3,2.6,26.7,7.2,34.3,13.7c7.6,6.5,11.3,16.4,11.3,29.8c0,5.7-1.2,11-3.6,16.1
			c-2.4,5.1-5.9,9.5-10.6,13.1c-4.7,3.7-10.5,6.6-17.5,8.8c-7,2.2-15,3.2-24,3.2c-8.9,0-17-0.9-24.4-2.6c-7.4-1.7-13.9-4.4-19.4-8
			c-5.5-3.6-9.9-8.3-13.3-13.9c-3.4-5.6-5.5-12.5-6.2-20.6H544.2z"/>
		<path class="st0" d="M793.7,465.5c-2.8,16.4-9.3,29.1-19.5,38.3s-24,13.7-41.5,13.7c-10.6,0-20-1.7-28.3-5.2
			c-8.3-3.5-15.3-8.6-20.9-15.3c-5.7-6.7-10-14.7-13-24.2c-3-9.4-4.5-20.1-4.5-31.9c0-11.9,1.6-22.6,4.8-32.2
			c3.2-9.6,7.7-17.8,13.6-24.6c5.8-6.8,12.9-12,21.3-15.7c8.4-3.7,17.8-5.5,28.4-5.5c16,0,28.8,4.1,38.3,12.3
			c9.5,8.2,15.8,19.7,18.8,34.6l-15.8,4c-1.1-5.3-2.7-10.2-4.8-14.7c-2.1-4.5-4.7-8.4-7.9-11.6c-3.2-3.2-7.2-5.7-12-7.6
			c-4.8-1.9-10.5-2.8-17.1-2.8c-8.9,0-16.4,1.6-22.6,4.8c-6.2,3.2-11.4,7.6-15.5,13.1c-4.1,5.6-7.2,12.2-9,19.9
			c-1.9,7.7-2.8,16.1-2.8,25.1c0,9,0.9,17.4,2.8,25.1c1.9,7.7,4.8,14.4,8.8,20.1c4,5.6,9.1,10.1,15.4,13.3
			c6.3,3.2,13.9,4.8,22.7,4.8c14.1,0,24.4-3.4,30.9-10.3c6.5-6.9,10.9-16.1,13.1-27.5H793.7z"/>
		<path class="st0" d="M821.4,367.5h16.4v23.7c5.8-8.3,12.5-14.7,20.1-19.2c7.5-4.5,15.5-6.8,24-6.8c2.1,0,4,0,5.8,0.1
			c1.8,0.1,3.7,0.3,5.8,0.7l-2,15.3c-3.4-0.6-6.5-0.8-9.3-0.8c-4.9,0-9.9,0.9-15,2.7c-5.1,1.8-9.9,4.9-14.4,9.2
			c-4.3,3.8-7.9,8.4-10.7,13.7c-2.8,5.4-4.2,11.8-4.2,19.1V513h-16.4V367.5z"/>
		<path class="st0" d="M910.7,311.2h18.7v24.6h-18.7V311.2z M911.8,367.5h16.4V513h-16.4V367.5z"/>
		<path class="st0" d="M957.3,311.2h16.4v78c6.6-8.3,13.8-14.7,21.8-19.4c7.9-4.6,17.5-6.9,28.8-6.9c10.5,0,19.8,1.9,27.7,5.8
			c7.9,3.9,14.5,9.2,19.6,16c5.2,6.8,9,14.8,11.6,24c2.5,9.2,3.8,19.2,3.8,29.9c0,12.4-1.6,23.5-4.7,33.2
			c-3.1,9.7-7.5,17.9-13.1,24.7c-5.7,6.8-12.5,12-20.5,15.5c-8,3.6-17,5.4-27,5.4c-8.9,0-17.4-1.8-25.6-5.4s-15.7-9.9-22.5-18.9V513
			h-16.4V311.2z M973.1,446c0,6.4,0.3,12,1,16.8c0.7,4.8,1.8,9.1,3.4,12.9c1.6,3.8,3.6,7.1,6.1,10s5.5,5.6,9,8
			c4.3,3.4,8.8,5.8,13.3,7.3c4.5,1.5,9.7,2.3,15.5,2.3c7,0,13.4-1.2,19.2-3.5c5.8-2.4,10.9-6.1,15.1-11.2s7.6-11.7,10-19.9
			c2.4-8.2,3.7-18.1,3.7-29.8c0-11.9-1.4-21.8-4.1-29.7c-2.7-7.9-6.3-14.3-10.6-19.1c-4.3-4.8-9.2-8.2-14.7-10.2
			c-5.5-2-10.8-3-16.1-3c-5.8,0-11.1,0.7-15.8,2c-4.7,1.3-9.4,3.8-14.1,7.3c-6.6,4.9-11.7,11.1-15.4,18.5
			c-3.7,7.4-5.5,16.9-5.5,28.4V446z"/>
		<path class="st0" d="M1209,492.3c-2.5,3-5.4,6-8.8,8.9c-3.4,2.9-7.3,5.5-11.6,7.8c-4.3,2.3-9.1,4-14.3,5.4c-5.2,1.3-10.9,2-17.1,2
			c-15.3,0-27.5-3.7-36.7-11c-9.2-7.4-13.8-18.3-13.8-32.8c0-9.8,2.1-17.8,6.2-24c4.1-6.2,9.7-11.1,16.5-14.7
			c6.9-3.6,14.7-6.1,23.5-7.5c8.8-1.4,17.8-2.3,27.3-2.7l28.3-1.1v-4.5c0-14.2-2.8-24.6-8.3-31.2c-5.6-6.6-15.5-9.8-29.8-9.8
			c-7,0-12.9,0.6-17.7,1.7c-4.8,1.1-8.8,2.8-12,4.9c-3.2,2.2-5.7,4.7-7.6,7.6c-1.9,2.9-3.3,6.2-4.2,9.7l-15-2.3
			c5.3-23.9,24.3-35.9,57.1-35.9c10.2,0,18.7,1.2,25.7,3.7c7,2.5,12.6,6,16.8,10.6c4.2,4.6,7.3,10.3,9.2,16.9
			c1.9,6.7,2.8,14.4,2.8,23V513H1209V492.3z M1208.7,435.5l-26.8,1.1c-10.9,0.4-20,1.4-27.3,3c-7.3,1.6-13.2,3.9-17.7,6.8
			c-4.5,2.9-7.7,6.5-9.7,10.7c-2,4.2-3,9.3-3,15.1c0,8.9,2.5,16,7.5,21.3c5,5.4,13.7,8,26,8c6.2,0,12.3-0.7,18.4-2.1
			c6.1-1.4,11.1-3.7,15.1-6.9c3.4-2.4,6.1-4.8,8.3-7.1c2.2-2.3,3.9-4.8,5.3-7.5c1.4-2.7,2.4-5.8,3-9.2s0.8-7.3,0.8-11.9V435.5z"/>
		<path class="st0" d="M1259,367.5h16.4v23.7c7.9-10,16.3-17.2,25.3-21.6c8.9-4.4,18.5-6.6,28.7-6.6c16.6,0,28.8,4.6,36.7,13.8
			c7.9,9.2,11.9,22.3,11.9,39.3V513h-16.4v-92.4c0-15.3-2.7-26.2-8.2-32.9c-5.5-6.7-14.1-10-26-10c-5.7,0-11.6,1.1-17.9,3.2
			c-6.3,2.2-12,5.6-17.1,10.3c-5.7,4.9-9.9,9.9-12.7,15.1c-2.8,5.2-4.2,12.3-4.2,21.3V513H1259V367.5z"/>
		<path class="st0" d="M1435.6,308.4h22l-35.9,37.9h-17.5L1435.6,308.4z M1406.2,367.5h16.4V513h-16.4V367.5z"/>
		<path class="st0" d="M1550,492.3c-2.5,3-5.4,6-8.8,8.9c-3.4,2.9-7.3,5.5-11.6,7.8c-4.3,2.3-9.1,4-14.3,5.4c-5.2,1.3-10.9,2-17.1,2
			c-15.3,0-27.5-3.7-36.7-11c-9.2-7.4-13.8-18.3-13.8-32.8c0-9.8,2.1-17.8,6.2-24c4.1-6.2,9.7-11.1,16.5-14.7
			c6.9-3.6,14.7-6.1,23.5-7.5c8.8-1.4,17.8-2.3,27.3-2.7l28.3-1.1v-4.5c0-14.2-2.8-24.6-8.3-31.2c-5.6-6.6-15.5-9.8-29.8-9.8
			c-7,0-12.9,0.6-17.7,1.7c-4.8,1.1-8.8,2.8-12,4.9c-3.2,2.2-5.7,4.7-7.6,7.6c-1.9,2.9-3.3,6.2-4.2,9.7l-15-2.3
			c5.3-23.9,24.3-35.9,57.1-35.9c10.2,0,18.7,1.2,25.7,3.7c7,2.5,12.6,6,16.8,10.6c4.2,4.6,7.3,10.3,9.2,16.9
			c1.9,6.7,2.8,14.4,2.8,23V513H1550V492.3z M1549.8,435.5l-26.8,1.1c-10.9,0.4-20,1.4-27.3,3c-7.3,1.6-13.2,3.9-17.7,6.8
			c-4.5,2.9-7.7,6.5-9.7,10.7c-2,4.2-3,9.3-3,15.1c0,8.9,2.5,16,7.5,21.3c5,5.4,13.7,8,26,8c6.2,0,12.3-0.7,18.4-2.1
			c6.1-1.4,11.1-3.7,15.1-6.9c3.4-2.4,6.1-4.8,8.3-7.1c2.2-2.3,3.9-4.8,5.3-7.5c1.4-2.7,2.4-5.8,3-9.2s0.8-7.3,0.8-11.9V435.5z"/>
		<path class="st0" d="M527.1,715.5c-2,8.5-10.8,42.3-14.1,52.1H353.6v-9.2c30.5-2.3,32.8-5.2,32.8-32.1V596.8
			c0-29.2-3.6-30.8-28.2-33.1v-9.2h100.4c30.8,0,43.6-0.3,47.6-0.7c0.3,8.2,1.6,32.8,3,50.2l-9.8,1.6c-3-11.2-6.2-18-9.8-24.9
			c-5.2-10.8-12.8-13.1-32.5-13.1h-31.2c-10.2,0-10.8,1-10.8,10.5v72.5h36.4c24.6,0,26.2-4.9,30.2-27.2h10.2v67.6h-10.2
			c-4.3-23.6-6.9-26.9-30.5-26.9h-36.1v65.3c0,23,7.2,24.9,23.6,25.3H469c20,0,23.3-3,30.5-11.5c6.2-6.9,13.1-20.3,17.7-30.2
			L527.1,715.5z"/>
		<path class="st0" d="M590.7,767.3c-5.6,3-10.8,4.3-14.1,4.3c-21,0-32.1-12.8-32.1-39v-95.5h-22.6l-1.3-3.9l8.9-9.5h15.1v-27.6
			c6.2-6.6,15.7-15.1,22-21.6l4.9,0.7c-0.7,13.8-1,32.8-1,48.5h37.4c3,3.3,2,10.5-2,13.4h-35.4v84c0,26.6,10.5,31.5,19,31.5
			c7.9,0,15.4-3,20-5.2l3,8.5L590.7,767.3z"/>
		<path class="st0" d="M733.7,738.1c-14.4,19-36.4,33.5-56.1,33.5c-41.7,0-66.3-33.8-66.3-68.9c0-25.9,11.2-47.6,33.1-64.3
			c17.4-13.4,37.1-18.7,49.9-18.7c14.8,0,25.6,4.6,30.5,8.9c4.6,3.6,5.2,5.9,5.2,9.5c0,7.9-8.2,14.8-11.8,14.8c-1.6,0-3-0.7-6.2-3.3
			c-10.2-9.2-21.3-13.8-33.1-13.8c-21.6,0-40.7,18.4-40.7,52.5c-0.3,45.6,30.8,60.7,49.9,60.7c13.8,0,24.9-3.6,40-18L733.7,738.1z"
			/>
		<path class="st0" d="M833.8,767.7v-9.2c19-2,21.7-3.6,21.7-25.3v-53.8c0-27.2-10.5-41-32.5-40.7c-12.5,0-25.6,6.2-34.8,17.1v77.4
			c0,21.3,2.6,23.3,22.3,25.3v9.2H739v-9.2c19-1.6,23.3-3.3,23.3-25.3V575.1c0-17.4-1-21.6-23-23.6V543c17.4-1.6,37.1-6.6,48.9-11.2
			c0,12.8,0,27.2,0,40.7v71.2c11.8-11.8,29.8-23.9,47.6-23.9c26.9,0,45.6,16.7,45.6,56.1v57.7c0,21.6,2.6,23.3,21.6,24.9v9.2H833.8z
			"/>
		<path class="st0" d="M1020.4,771.6c-4.9,0-12.1-2.6-15.4-6.2c-4.3-4.3-6.2-8.9-7.9-14.8c-13.1,8.9-29.2,21-39.4,21
			c-23.3,0-40-19.4-40-40.3c0-16.1,8.9-26.6,26.9-32.8c20-6.9,44.6-15.4,51.8-21.3v-6.6c0-23.3-11.8-36.7-28.9-36.7
			c-7.5,0-12.1,3.6-15.4,7.5c-3.6,4.6-5.9,11.8-8.9,21.3c-1.6,5.2-4.6,7.5-9.5,7.5c-6.2,0-14.4-6.6-14.4-14.4
			c0-4.6,4.3-8.5,10.8-13.1c9.5-6.9,28.5-19,47.2-23c9.8,0,20,3,27.6,8.9c11.5,9.8,16.7,21,16.7,38v63.3c0,15.1,5.6,19.7,11.5,19.7
			c3.9,0,8.2-1.6,11.8-3.6l3.3,9.2L1020.4,771.6z M996.4,688.6c-7.2,3.6-23,10.5-30.5,13.8c-12.5,5.6-20,11.8-20,23.9
			c0,17.4,13.1,25.3,23.6,25.3c8.5,0,20.3-5.2,26.9-11.8C996.4,724.4,996.4,704,996.4,688.6z"/>
		<path class="st0" d="M1130.9,767.7h-75.4v-9.2c20.7-2,22.6-3.6,22.6-24.9v-68.2c0-21.6-1.3-22.6-20.3-24.9v-8.2
			c16.1-2.6,30.8-6.6,46.2-13.4c0,10.8,0,25.3,0,36.1c11.5-17.1,25.3-35.1,41.7-35.1c12.1,0,19,7.5,19,15.7c0,7.5-5.2,14.8-11.2,18
			c-3.3,2-5.9,1.6-8.5-0.7c-4.9-4.9-8.9-8.2-14.8-8.2c-6.9,0-19,10.2-26.2,26.9v61.7c0,21.6,1.6,23.3,26.9,25.3V767.7z"/>
		<path class="st0" d="M1241.8,767.3c-5.6,3-10.8,4.3-14.1,4.3c-21,0-32.1-12.8-32.1-39v-95.5h-22.6l-1.3-3.9l8.9-9.5h15.1v-27.6
			c6.2-6.6,15.7-15.1,22-21.6l4.9,0.7c-0.7,13.8-1,32.8-1,48.5h37.4c3,3.3,2,10.5-2,13.4h-35.4v84c0,26.6,10.5,31.5,19,31.5
			c7.9,0,15.4-3,20-5.2l3,8.5L1241.8,767.3z"/>
	</g>
</g>
</svg>
